<mxfile host="app.diagrams.net" modified="2023-11-26T17:59:55.468Z" agent="Mozilla/5.0 (X11; Linux x86_64; rv:109.0) Gecko/20100101 Firefox/115.0" etag="4il1ZKWfnjVK1zup_YSj" version="22.1.4" type="device">
  <diagram name="Página-1" id="HaD1zVWPm8SvlJ48wAJf">
    <mxGraphModel dx="2659" dy="1746" grid="0" gridSize="10" guides="1" tooltips="1" connect="1" arrows="1" fold="1" page="0" pageScale="1" pageWidth="827" pageHeight="1169" math="0" shadow="0">
      <root>
        <mxCell id="0" />
        <mxCell id="1" parent="0" />
        <mxCell id="JkNTtOXue6B4-RoPdNu2-13" style="edgeStyle=orthogonalEdgeStyle;rounded=0;orthogonalLoop=1;jettySize=auto;html=1;entryX=0;entryY=0.5;entryDx=0;entryDy=0;exitX=0.75;exitY=0.1;exitDx=0;exitDy=0;exitPerimeter=0;" edge="1" parent="1" source="JkNTtOXue6B4-RoPdNu2-1" target="JkNTtOXue6B4-RoPdNu2-7">
          <mxGeometry relative="1" as="geometry">
            <mxPoint x="-455" y="-125" as="sourcePoint" />
          </mxGeometry>
        </mxCell>
        <mxCell id="JkNTtOXue6B4-RoPdNu2-14" style="edgeStyle=orthogonalEdgeStyle;rounded=0;orthogonalLoop=1;jettySize=auto;html=1;exitX=1;exitY=0.3333333333333333;exitDx=0;exitDy=0;exitPerimeter=0;" edge="1" parent="1" source="JkNTtOXue6B4-RoPdNu2-1" target="JkNTtOXue6B4-RoPdNu2-8">
          <mxGeometry relative="1" as="geometry" />
        </mxCell>
        <mxCell id="JkNTtOXue6B4-RoPdNu2-15" style="edgeStyle=orthogonalEdgeStyle;rounded=0;orthogonalLoop=1;jettySize=auto;html=1;exitX=0.5;exitY=0.5;exitDx=0;exitDy=0;exitPerimeter=0;entryX=0;entryY=0.5;entryDx=0;entryDy=0;" edge="1" parent="1" source="JkNTtOXue6B4-RoPdNu2-1" target="JkNTtOXue6B4-RoPdNu2-11">
          <mxGeometry relative="1" as="geometry" />
        </mxCell>
        <mxCell id="JkNTtOXue6B4-RoPdNu2-16" style="edgeStyle=orthogonalEdgeStyle;rounded=0;orthogonalLoop=1;jettySize=auto;html=1;exitX=1;exitY=1;exitDx=0;exitDy=0;exitPerimeter=0;entryX=0;entryY=0.5;entryDx=0;entryDy=0;" edge="1" parent="1" source="JkNTtOXue6B4-RoPdNu2-1" target="JkNTtOXue6B4-RoPdNu2-12">
          <mxGeometry relative="1" as="geometry">
            <Array as="points">
              <mxPoint x="-499" y="-101" />
              <mxPoint x="-456" y="-101" />
              <mxPoint x="-456" y="79" />
            </Array>
          </mxGeometry>
        </mxCell>
        <mxCell id="JkNTtOXue6B4-RoPdNu2-45" style="edgeStyle=orthogonalEdgeStyle;rounded=0;orthogonalLoop=1;jettySize=auto;html=1;exitX=0.5;exitY=0.5;exitDx=0;exitDy=0;exitPerimeter=0;entryX=0;entryY=0.5;entryDx=0;entryDy=0;" edge="1" parent="1" source="JkNTtOXue6B4-RoPdNu2-1" target="JkNTtOXue6B4-RoPdNu2-44">
          <mxGeometry relative="1" as="geometry">
            <Array as="points">
              <mxPoint x="-514" y="-120" />
              <mxPoint x="-444" y="-120" />
              <mxPoint x="-444" y="1" />
            </Array>
          </mxGeometry>
        </mxCell>
        <mxCell id="JkNTtOXue6B4-RoPdNu2-1" value="&lt;strong&gt; Aluno&lt;/strong&gt;" style="shape=umlActor;verticalLabelPosition=bottom;verticalAlign=top;html=1;outlineConnect=0;" vertex="1" parent="1">
          <mxGeometry x="-529" y="-163" width="30" height="60" as="geometry" />
        </mxCell>
        <mxCell id="JkNTtOXue6B4-RoPdNu2-25" style="edgeStyle=orthogonalEdgeStyle;rounded=0;orthogonalLoop=1;jettySize=auto;html=1;exitX=1;exitY=1;exitDx=0;exitDy=0;exitPerimeter=0;" edge="1" parent="1" source="JkNTtOXue6B4-RoPdNu2-2" target="JkNTtOXue6B4-RoPdNu2-7">
          <mxGeometry relative="1" as="geometry">
            <Array as="points">
              <mxPoint x="-290" y="-492" />
            </Array>
          </mxGeometry>
        </mxCell>
        <mxCell id="JkNTtOXue6B4-RoPdNu2-31" style="edgeStyle=orthogonalEdgeStyle;rounded=0;orthogonalLoop=1;jettySize=auto;html=1;exitX=0;exitY=0.3333333333333333;exitDx=0;exitDy=0;exitPerimeter=0;entryX=1;entryY=0.5;entryDx=0;entryDy=0;" edge="1" parent="1" source="JkNTtOXue6B4-RoPdNu2-2" target="JkNTtOXue6B4-RoPdNu2-30">
          <mxGeometry relative="1" as="geometry" />
        </mxCell>
        <mxCell id="JkNTtOXue6B4-RoPdNu2-2" value="&lt;strong&gt;Professor&lt;/strong&gt;" style="shape=umlActor;verticalLabelPosition=bottom;verticalAlign=top;html=1;" vertex="1" parent="1">
          <mxGeometry x="-351" y="-552" width="30" height="60" as="geometry" />
        </mxCell>
        <mxCell id="JkNTtOXue6B4-RoPdNu2-24" style="edgeStyle=orthogonalEdgeStyle;rounded=0;orthogonalLoop=1;jettySize=auto;html=1;exitX=1;exitY=1;exitDx=0;exitDy=0;exitPerimeter=0;" edge="1" parent="1" source="JkNTtOXue6B4-RoPdNu2-3" target="JkNTtOXue6B4-RoPdNu2-7">
          <mxGeometry relative="1" as="geometry">
            <Array as="points">
              <mxPoint x="-290" y="-337" />
            </Array>
          </mxGeometry>
        </mxCell>
        <mxCell id="JkNTtOXue6B4-RoPdNu2-26" style="edgeStyle=orthogonalEdgeStyle;rounded=0;orthogonalLoop=1;jettySize=auto;html=1;exitX=0;exitY=1;exitDx=0;exitDy=0;exitPerimeter=0;entryX=1;entryY=0.5;entryDx=0;entryDy=0;" edge="1" parent="1" source="JkNTtOXue6B4-RoPdNu2-3" target="JkNTtOXue6B4-RoPdNu2-21">
          <mxGeometry relative="1" as="geometry">
            <Array as="points">
              <mxPoint x="-627" y="-337" />
              <mxPoint x="-627" y="-214" />
            </Array>
          </mxGeometry>
        </mxCell>
        <mxCell id="JkNTtOXue6B4-RoPdNu2-27" style="edgeStyle=orthogonalEdgeStyle;rounded=0;orthogonalLoop=1;jettySize=auto;html=1;exitX=0.5;exitY=0.5;exitDx=0;exitDy=0;exitPerimeter=0;entryX=1;entryY=0.5;entryDx=0;entryDy=0;" edge="1" parent="1" source="JkNTtOXue6B4-RoPdNu2-3" target="JkNTtOXue6B4-RoPdNu2-18">
          <mxGeometry relative="1" as="geometry">
            <Array as="points">
              <mxPoint x="-587" y="-341" />
              <mxPoint x="-655" y="-341" />
              <mxPoint x="-655" y="-295" />
            </Array>
          </mxGeometry>
        </mxCell>
        <mxCell id="JkNTtOXue6B4-RoPdNu2-28" style="edgeStyle=orthogonalEdgeStyle;rounded=0;orthogonalLoop=1;jettySize=auto;html=1;exitX=0.5;exitY=0.5;exitDx=0;exitDy=0;exitPerimeter=0;" edge="1" parent="1" source="JkNTtOXue6B4-RoPdNu2-3" target="JkNTtOXue6B4-RoPdNu2-20">
          <mxGeometry relative="1" as="geometry">
            <Array as="points">
              <mxPoint x="-587" y="-373" />
              <mxPoint x="-657" y="-373" />
              <mxPoint x="-657" y="-393" />
            </Array>
          </mxGeometry>
        </mxCell>
        <mxCell id="JkNTtOXue6B4-RoPdNu2-29" style="edgeStyle=orthogonalEdgeStyle;rounded=0;orthogonalLoop=1;jettySize=auto;html=1;exitX=0.25;exitY=0.1;exitDx=0;exitDy=0;exitPerimeter=0;entryX=1;entryY=0.5;entryDx=0;entryDy=0;" edge="1" parent="1" source="JkNTtOXue6B4-RoPdNu2-3" target="JkNTtOXue6B4-RoPdNu2-19">
          <mxGeometry relative="1" as="geometry">
            <Array as="points">
              <mxPoint x="-631" y="-391" />
              <mxPoint x="-631" y="-494" />
            </Array>
          </mxGeometry>
        </mxCell>
        <mxCell id="JkNTtOXue6B4-RoPdNu2-3" value="&lt;strong&gt;Secretaria&lt;/strong&gt;" style="shape=umlActor;verticalLabelPosition=bottom;verticalAlign=top;html=1;" vertex="1" parent="1">
          <mxGeometry x="-576" y="-390" width="30" height="60" as="geometry" />
        </mxCell>
        <mxCell id="JkNTtOXue6B4-RoPdNu2-32" style="edgeStyle=orthogonalEdgeStyle;rounded=0;orthogonalLoop=1;jettySize=auto;html=1;exitX=0.5;exitY=0.5;exitDx=0;exitDy=0;exitPerimeter=0;entryX=1;entryY=0.5;entryDx=0;entryDy=0;" edge="1" parent="1" source="JkNTtOXue6B4-RoPdNu2-5" target="JkNTtOXue6B4-RoPdNu2-22">
          <mxGeometry relative="1" as="geometry" />
        </mxCell>
        <mxCell id="JkNTtOXue6B4-RoPdNu2-5" value="&lt;strong&gt;Sistema de Cobranças&lt;/strong&gt;" style="shape=umlActor;verticalLabelPosition=bottom;verticalAlign=top;html=1;" vertex="1" parent="1">
          <mxGeometry x="-775" y="-76" width="30" height="60" as="geometry" />
        </mxCell>
        <mxCell id="JkNTtOXue6B4-RoPdNu2-52" style="edgeStyle=orthogonalEdgeStyle;rounded=0;orthogonalLoop=1;jettySize=auto;html=1;" edge="1" parent="1" source="JkNTtOXue6B4-RoPdNu2-6" target="JkNTtOXue6B4-RoPdNu2-35">
          <mxGeometry relative="1" as="geometry" />
        </mxCell>
        <mxCell id="JkNTtOXue6B4-RoPdNu2-53" style="edgeStyle=orthogonalEdgeStyle;rounded=0;orthogonalLoop=1;jettySize=auto;html=1;exitX=0;exitY=1;exitDx=0;exitDy=0;exitPerimeter=0;" edge="1" parent="1" source="JkNTtOXue6B4-RoPdNu2-6" target="JkNTtOXue6B4-RoPdNu2-33">
          <mxGeometry relative="1" as="geometry">
            <mxPoint x="-640" y="181" as="sourcePoint" />
            <mxPoint x="-846" y="300" as="targetPoint" />
            <Array as="points">
              <mxPoint x="-640" y="166" />
              <mxPoint x="-724" y="166" />
              <mxPoint x="-724" y="198" />
            </Array>
          </mxGeometry>
        </mxCell>
        <mxCell id="JkNTtOXue6B4-RoPdNu2-54" style="edgeStyle=orthogonalEdgeStyle;rounded=0;orthogonalLoop=1;jettySize=auto;html=1;exitX=0.5;exitY=0.5;exitDx=0;exitDy=0;exitPerimeter=0;" edge="1" parent="1" target="JkNTtOXue6B4-RoPdNu2-34">
          <mxGeometry relative="1" as="geometry">
            <mxPoint x="-640" y="177" as="sourcePoint" />
            <mxPoint x="-699" y="394" as="targetPoint" />
            <Array as="points">
              <mxPoint x="-639" y="177" />
              <mxPoint x="-639" y="187" />
              <mxPoint x="-718" y="187" />
            </Array>
          </mxGeometry>
        </mxCell>
        <mxCell id="JkNTtOXue6B4-RoPdNu2-6" value="&lt;strong&gt;Sistema&lt;/strong&gt;" style="shape=umlActor;verticalLabelPosition=bottom;verticalAlign=top;html=1;" vertex="1" parent="1">
          <mxGeometry x="-640" y="128" width="33" height="60" as="geometry" />
        </mxCell>
        <mxCell id="JkNTtOXue6B4-RoPdNu2-7" value="Realizar Login" style="ellipse;whiteSpace=wrap;html=1;" vertex="1" parent="1">
          <mxGeometry x="-360" y="-293" width="140" height="70" as="geometry" />
        </mxCell>
        <mxCell id="JkNTtOXue6B4-RoPdNu2-8" value="Visualizar Disciplinas Disponíveis" style="ellipse;whiteSpace=wrap;html=1;" vertex="1" parent="1">
          <mxGeometry x="-326" y="-213" width="140" height="70" as="geometry" />
        </mxCell>
        <mxCell id="JkNTtOXue6B4-RoPdNu2-11" value="Cancelar Matrícula" style="ellipse;whiteSpace=wrap;html=1;" vertex="1" parent="1">
          <mxGeometry x="-360" y="-126" width="140" height="70" as="geometry" />
        </mxCell>
        <mxCell id="JkNTtOXue6B4-RoPdNu2-12" value="Visualizar Calendário de Matrículas" style="ellipse;whiteSpace=wrap;html=1;" vertex="1" parent="1">
          <mxGeometry x="-447" y="44" width="140" height="70" as="geometry" />
        </mxCell>
        <mxCell id="JkNTtOXue6B4-RoPdNu2-18" value="Manter Informações sobre Alunos" style="ellipse;whiteSpace=wrap;html=1;" vertex="1" parent="1">
          <mxGeometry x="-851" y="-330" width="140" height="70" as="geometry" />
        </mxCell>
        <mxCell id="JkNTtOXue6B4-RoPdNu2-19" value="Manter Informações sobre Professores" style="ellipse;whiteSpace=wrap;html=1;" vertex="1" parent="1">
          <mxGeometry x="-874" y="-529" width="140" height="70" as="geometry" />
        </mxCell>
        <mxCell id="JkNTtOXue6B4-RoPdNu2-20" value="Manter Informações sobre Disciplinas" style="ellipse;whiteSpace=wrap;html=1;" vertex="1" parent="1">
          <mxGeometry x="-862" y="-428" width="140" height="70" as="geometry" />
        </mxCell>
        <mxCell id="JkNTtOXue6B4-RoPdNu2-21" value="Gerar Currículo do Semestre" style="ellipse;whiteSpace=wrap;html=1;" vertex="1" parent="1">
          <mxGeometry x="-887" y="-249" width="140" height="70" as="geometry" />
        </mxCell>
        <mxCell id="JkNTtOXue6B4-RoPdNu2-22" value="Notificar Sistema de Cobranças sobre Matrícula" style="ellipse;whiteSpace=wrap;html=1;" vertex="1" parent="1">
          <mxGeometry x="-996" y="-81" width="140" height="70" as="geometry" />
        </mxCell>
        <mxCell id="JkNTtOXue6B4-RoPdNu2-30" value="Visualizar Alunos Matriculados em Suas Disciplinas" style="ellipse;whiteSpace=wrap;html=1;" vertex="1" parent="1">
          <mxGeometry x="-526" y="-564" width="140" height="70" as="geometry" />
        </mxCell>
        <mxCell id="JkNTtOXue6B4-RoPdNu2-33" value="Notificar Sistema de Cobranças" style="ellipse;whiteSpace=wrap;html=1;" vertex="1" parent="1">
          <mxGeometry x="-948" y="163" width="140" height="70" as="geometry" />
        </mxCell>
        <mxCell id="JkNTtOXue6B4-RoPdNu2-34" value="Cancelar Disciplina (se o número mínimo de inscrições não for atingido)" style="ellipse;whiteSpace=wrap;html=1;" vertex="1" parent="1">
          <mxGeometry x="-817" y="261" width="197" height="116" as="geometry" />
        </mxCell>
        <mxCell id="JkNTtOXue6B4-RoPdNu2-35" value="Encerrar Inscrições em Disciplina (quando o limite de alunos for atingido)" style="ellipse;whiteSpace=wrap;html=1;" vertex="1" parent="1">
          <mxGeometry x="-552" y="215" width="162" height="85" as="geometry" />
        </mxCell>
        <mxCell id="JkNTtOXue6B4-RoPdNu2-36" value="Autenticar Usuário" style="ellipse;whiteSpace=wrap;html=1;" vertex="1" parent="1">
          <mxGeometry x="-856" y="87" width="140" height="70" as="geometry" />
        </mxCell>
        <mxCell id="JkNTtOXue6B4-RoPdNu2-38" value="Use&lt;strong&gt;Verificar Status da Disciplina (verificar se há pelo menos 3 alunos matriculados)&lt;/strong&gt;" style="ellipse;whiteSpace=wrap;html=1;" vertex="1" parent="1">
          <mxGeometry x="-62" y="246" width="185" height="118" as="geometry" />
        </mxCell>
        <mxCell id="JkNTtOXue6B4-RoPdNu2-41" value="&amp;lt;&amp;lt;extend&amp;gt;&amp;gt;" style="html=1;verticalAlign=bottom;labelBackgroundColor=none;endArrow=open;endFill=0;dashed=1;rounded=0;entryX=1;entryY=0.5;entryDx=0;entryDy=0;" edge="1" parent="1" source="JkNTtOXue6B4-RoPdNu2-38" target="JkNTtOXue6B4-RoPdNu2-35">
          <mxGeometry width="160" relative="1" as="geometry">
            <mxPoint x="-454" y="154" as="sourcePoint" />
            <mxPoint x="-294" y="154" as="targetPoint" />
            <Array as="points">
              <mxPoint x="-90" y="289" />
              <mxPoint x="-129" y="293" />
            </Array>
          </mxGeometry>
        </mxCell>
        <mxCell id="JkNTtOXue6B4-RoPdNu2-43" value="&lt;strong&gt;Validar Prazo de Matrícula (verificar se o aluno está dentro do período de matrículas):&lt;/strong&gt;" style="ellipse;whiteSpace=wrap;html=1;" vertex="1" parent="1">
          <mxGeometry x="-107" y="-149.5" width="190" height="117" as="geometry" />
        </mxCell>
        <mxCell id="JkNTtOXue6B4-RoPdNu2-44" value="Matricular-se em Disciplinas" style="ellipse;whiteSpace=wrap;html=1;" vertex="1" parent="1">
          <mxGeometry x="-371" y="-34" width="140" height="70" as="geometry" />
        </mxCell>
        <mxCell id="JkNTtOXue6B4-RoPdNu2-46" value="&amp;lt;&amp;lt;include&amp;gt;&amp;gt;" style="html=1;verticalAlign=bottom;labelBackgroundColor=none;endArrow=open;endFill=0;dashed=1;rounded=0;exitX=1;exitY=0.5;exitDx=0;exitDy=0;" edge="1" parent="1" source="JkNTtOXue6B4-RoPdNu2-11" target="JkNTtOXue6B4-RoPdNu2-43">
          <mxGeometry width="160" relative="1" as="geometry">
            <mxPoint x="-151" y="-17" as="sourcePoint" />
            <mxPoint x="9" y="-17" as="targetPoint" />
          </mxGeometry>
        </mxCell>
        <mxCell id="JkNTtOXue6B4-RoPdNu2-47" value="&amp;lt;&amp;lt;include&amp;gt;&amp;gt;" style="html=1;verticalAlign=bottom;labelBackgroundColor=none;endArrow=open;endFill=0;dashed=1;rounded=0;exitX=1;exitY=0.5;exitDx=0;exitDy=0;entryX=0;entryY=0.5;entryDx=0;entryDy=0;" edge="1" parent="1" source="JkNTtOXue6B4-RoPdNu2-44" target="JkNTtOXue6B4-RoPdNu2-43">
          <mxGeometry x="-0.2057" width="160" relative="1" as="geometry">
            <mxPoint x="-245" y="60" as="sourcePoint" />
            <mxPoint x="-85" y="60" as="targetPoint" />
            <Array as="points">
              <mxPoint x="-109" y="1" />
            </Array>
            <mxPoint as="offset" />
          </mxGeometry>
        </mxCell>
        <mxCell id="JkNTtOXue6B4-RoPdNu2-48" value="&lt;strong&gt;Validar Número Máximo de Alunos (verificar se o número máximo de alunos não foi atingido)&lt;/strong&gt;" style="ellipse;whiteSpace=wrap;html=1;" vertex="1" parent="1">
          <mxGeometry x="-113" y="87" width="199" height="128" as="geometry" />
        </mxCell>
        <mxCell id="JkNTtOXue6B4-RoPdNu2-49" value="&amp;lt;&amp;lt;include&amp;gt;&amp;gt;" style="html=1;verticalAlign=bottom;labelBackgroundColor=none;endArrow=open;endFill=0;dashed=1;rounded=0;" edge="1" parent="1" source="JkNTtOXue6B4-RoPdNu2-35" target="JkNTtOXue6B4-RoPdNu2-48">
          <mxGeometry width="160" relative="1" as="geometry">
            <mxPoint x="-195" y="119" as="sourcePoint" />
            <mxPoint x="-35" y="119" as="targetPoint" />
            <Array as="points">
              <mxPoint x="-249" y="146" />
            </Array>
          </mxGeometry>
        </mxCell>
        <mxCell id="JkNTtOXue6B4-RoPdNu2-50" value="&amp;lt;&amp;lt;include&amp;gt;&amp;gt;" style="html=1;verticalAlign=bottom;labelBackgroundColor=none;endArrow=open;endFill=0;dashed=1;rounded=0;entryX=0.246;entryY=0.086;entryDx=0;entryDy=0;entryPerimeter=0;exitX=0.95;exitY=0.829;exitDx=0;exitDy=0;exitPerimeter=0;" edge="1" parent="1" source="JkNTtOXue6B4-RoPdNu2-44" target="JkNTtOXue6B4-RoPdNu2-48">
          <mxGeometry width="160" relative="1" as="geometry">
            <mxPoint x="-337" y="227" as="sourcePoint" />
            <mxPoint x="-177" y="227" as="targetPoint" />
            <Array as="points">
              <mxPoint x="-238" y="93" />
            </Array>
          </mxGeometry>
        </mxCell>
        <mxCell id="JkNTtOXue6B4-RoPdNu2-51" style="edgeStyle=orthogonalEdgeStyle;rounded=0;orthogonalLoop=1;jettySize=auto;html=1;entryX=0;entryY=0.3333333333333333;entryDx=0;entryDy=0;entryPerimeter=0;" edge="1" parent="1" source="JkNTtOXue6B4-RoPdNu2-36" target="JkNTtOXue6B4-RoPdNu2-6">
          <mxGeometry relative="1" as="geometry" />
        </mxCell>
      </root>
    </mxGraphModel>
  </diagram>
</mxfile>
